<svg width="64" height="64" xmlns="http://www.w3.org/2000/svg" xmlns:svg="http://www.w3.org/2000/svg">
  <!-- Created with SVG-edit - https://github.com/SVG-Edit/svgedit-->
  <g class="layer">
    <title>Layer 1</title>
    <path fill="#2f2f2f" stroke="none" d="m14.4,35.36a2.2,2.2 90 0 1 35.2,0a3.56,2.2 0 0 1 -35.2,0z" id="rock-background" stroke-linejoin="round"/>
    <path fill="#0f0f0f" stroke="none" d="M 14.4 35.36 q 17.6 10.874 35.2 0 a 3.56 2.2 0 0 1 -35.2 0" id="shadow"/>
    <path fill="none" stroke="#2f2f2f" stroke-width="3" d="m14.4,35.36a2.2,2.2 90 0 1 35.2,0a3.56,2.2 0 0 1 -35.2,0z" id="rock-outline-1" stroke-linejoin="round"/>
    <path fill="none" stroke="#efefef" stroke-width="1.25" d="m14.4,35.36a2.2,2.2 90 0 1 35.2,0a3.56,2.2 0 0 1 -35.2,0z" id="rock-outline-2" stroke-linejoin="round"/>
    <path fill="none" stroke="#efefef" stroke-width="2" d="m18.8,35.36a13.2,13.2 90 0 1 13.2,-13.2l0,0" id="highlight" stroke-linecap="round"/>
  </g>
</svg>
